<svg width="133" height="128" viewBox="0 0 133 128" fill="none" xmlns="http://www.w3.org/2000/svg">
<g filter="url(#filter0_dd_44_2023)">
<path d="M83.8545 40.6032L74.2673 77.2925C73.8698 78.7791 72.5174 79.817 70.9775 79.817C69.3017 79.817 66.9784 78.1776 67.6888 75.5298L73.2189 54.5905C74.1583 51.083 73.4289 47.4188 71.2179 44.5367C69.007 41.6551 65.6567 40.0026 62.0237 40.0026C62.0233 40.0026 52.7377 39.6073 50.3296 48.5918L40 87.3994H48.4719L58.2348 50.7096C58.9862 47.9008 62.0234 48.1856 62.0237 48.1856C64.7991 48.1856 65.7421 50.8748 65.3135 52.4727L59.7834 73.4121C58.8438 76.9196 59.5733 80.5838 61.7842 83.4659C63.9943 86.3475 67.3454 88 70.9786 88C76.215 88 80.8182 84.4679 82.1727 79.4103L92.3264 40.6032H83.8545Z" fill="#00ED6A"/>
</g>
<defs>
<filter id="filter0_dd_44_2023" x="0" y="0" width="132.326" height="128" filterUnits="userSpaceOnUse" color-interpolation-filters="sRGB">
<feFlood flood-opacity="0" result="BackgroundImageFix"/>
<feColorMatrix in="SourceAlpha" type="matrix" values="0 0 0 0 0 0 0 0 0 0 0 0 0 0 0 0 0 0 127 0" result="hardAlpha"/>
<feOffset/>
<feGaussianBlur stdDeviation="20"/>
<feComposite in2="hardAlpha" operator="out"/>
<feColorMatrix type="matrix" values="0 0 0 0 1 0 0 0 0 1 0 0 0 0 0 0 0 0 0.25 0"/>
<feBlend mode="normal" in2="BackgroundImageFix" result="effect1_dropShadow_44_2023"/>
<feColorMatrix in="SourceAlpha" type="matrix" values="0 0 0 0 0 0 0 0 0 0 0 0 0 0 0 0 0 0 127 0" result="hardAlpha"/>
<feOffset/>
<feGaussianBlur stdDeviation="12"/>
<feComposite in2="hardAlpha" operator="out"/>
<feColorMatrix type="matrix" values="0 0 0 0 0 0 0 0 0 0.929412 0 0 0 0 0.415686 0 0 0 0.5 0"/>
<feBlend mode="normal" in2="effect1_dropShadow_44_2023" result="effect2_dropShadow_44_2023"/>
<feBlend mode="normal" in="SourceGraphic" in2="effect2_dropShadow_44_2023" result="shape"/>
</filter>
</defs>
</svg>
