<svg width="132" height="24" viewBox="0 0 132 24" fill="none" xmlns="http://www.w3.org/2000/svg">
<path d="M29.3957 20.4324C31.6441 20.4324 32.7234 18.7234 32.7234 16.7149V15.066C32.7234 13.0573 31.6441 11.3485 29.3957 11.3485C27.1473 11.3485 26.068 13.0573 26.068 15.066V16.7149C26.068 18.7234 27.1473 20.4324 29.3957 20.4324ZM22.3203 16.7149V15.066C22.3203 11.2585 24.8086 7.78085 29.3957 7.78085C33.9828 7.78085 36.4711 11.2585 36.4711 15.066V16.7149C36.4711 20.5224 33.9828 24 29.3957 24C24.8086 24 22.3203 20.5224 22.3203 16.7149Z" fill="#141414"/>
<path d="M36.3218 8.35054V8.0508H40.3393L43.9667 19.5631L47.4446 8.0508H51.492V8.35054L46.2152 23.7303H41.6884L36.3218 8.35054Z" fill="#141414"/>
<path d="M57.4279 20.6122C59.8264 20.6122 60.8155 19.2331 60.8155 17.8242V17.2246H57.0682C55.9286 17.2246 55.2992 18.0339 55.2992 18.8434C55.2992 19.8927 56.1386 20.6122 57.4279 20.6122ZM51.4917 18.8434C51.4917 16.3251 53.2607 14.1366 57.008 14.1366H60.8155V13.567C60.8155 12.5777 60.0359 11.2285 58.0574 11.2285C56.3785 11.2285 55.6289 12.3378 55.4492 13.1772H51.8517C52.2113 10.2392 54.34 7.78085 58.0574 7.78085C62.6144 7.78085 64.5033 11.1086 64.5033 13.567V19.6529C64.5033 20.2525 64.8329 20.4324 65.3726 20.4324H65.8524V23.7302H63.184C62.0449 23.7302 61.1755 23.0407 61.1755 21.8414V21.8114C60.6658 22.8008 59.4364 24 56.8283 24C53.8603 24 51.4917 21.8714 51.4917 18.8434Z" fill="#141414"/>
<path d="M74.4266 20.4324C76.6754 20.4324 77.7547 18.7234 77.7547 16.7149V15.066C77.7547 13.0573 76.6754 11.3485 74.4266 11.3485C72.1781 11.3485 71.0988 13.0573 71.0988 15.066V16.7149C71.0988 18.7234 72.1781 20.4324 74.4266 20.4324ZM71.0988 22.7709V23.7302H67.3516V2.74416H71.0988V9.01007C71.9985 8.23052 73.2275 7.78085 74.7866 7.78085C79.3736 7.78085 81.502 11.2585 81.502 15.066V16.7149C81.502 20.5224 79.3736 24 74.7866 24C73.2275 24 71.9985 23.5504 71.0988 22.7709Z" fill="#141414"/>
<path d="M89.5749 20.4324C91.8233 20.4324 92.9026 18.7234 92.9026 16.7149V15.066C92.9026 13.0573 91.8233 11.3485 89.5749 11.3485C87.3265 11.3485 86.2472 13.0573 86.2472 15.066V16.7149C86.2472 18.7234 87.3265 20.4324 89.5749 20.4324ZM82.4995 16.7149V15.066C82.4995 11.2585 84.9878 7.78085 89.5749 7.78085C94.162 7.78085 96.6503 11.2585 96.6503 15.066V16.7149C96.6503 20.5224 94.162 24 89.5749 24C84.9878 24 82.4995 20.5224 82.4995 16.7149Z" fill="#141414"/>
<path d="M104.723 20.4324C106.972 20.4324 108.051 18.7234 108.051 16.7149V15.066C108.051 13.0573 106.972 11.3485 104.723 11.3485C102.475 11.3485 101.396 13.0573 101.396 15.066V16.7149C101.396 18.7234 102.475 20.4324 104.723 20.4324ZM97.6479 16.7149V15.066C97.6479 11.2585 100.136 7.78085 104.723 7.78085C109.31 7.78085 111.799 11.2585 111.799 15.066V16.7149C111.799 20.5224 109.31 24 104.723 24C100.136 24 97.6479 20.5224 97.6479 16.7149Z" fill="#141414"/>
<path d="M118.408 16.9247H116.549V23.7302H112.802V2.74414H116.549V13.2672H118.738L122.035 8.0507H125.963V8.35044L121.676 15.2758L126.143 23.4305V23.7302H122.275L118.408 16.9247Z" fill="#141414"/>
<path d="M19.7015 2.70707L15.3945 19.1897C15.2159 19.8575 14.6084 20.3238 13.9166 20.3238C13.1637 20.3238 12.12 19.5873 12.4391 18.3978L14.9235 8.99085C15.3456 7.41511 15.0178 5.76897 14.0246 4.47422C13.0313 3.17967 11.5262 2.43727 9.89412 2.43727C9.89392 2.43727 5.72239 2.25969 4.64055 6.29597L0 23.7302H3.80599L8.19196 7.24737C8.52952 5.98552 9.89398 6.11348 9.89412 6.11348C11.1409 6.11348 11.5646 7.3216 11.372 8.03946L8.88765 17.4464C8.46554 19.0222 8.79326 20.6683 9.78652 21.9631C10.7794 23.2576 12.2849 24 13.9171 24C16.2695 24 18.3375 22.4132 18.946 20.1411L23.5075 2.70707H19.7015Z" fill="#141414"/>
</svg>
